<svg width="11" height="11" viewBox="0 0 11 11" fill="none" xmlns="http://www.w3.org/2000/svg">
<path fill-rule="evenodd" clip-rule="evenodd" d="M9.7972 5.61357C9.7972 7.91473 7.9317 9.78023 5.63053 9.78023C3.32935 9.78023 1.46387 7.91473 1.46387 5.61357C1.46387 3.31238 3.32935 1.4469 5.63053 1.4469C7.9317 1.4469 9.7972 3.31238 9.7972 5.61357ZM7.30983 4.35093C7.43187 4.47297 7.43187 4.67083 7.30983 4.79286L5.22649 6.87619C5.10445 6.99823 4.90662 6.99823 4.78456 6.87619L3.95123 6.04286C3.82919 5.92082 3.82919 5.72298 3.95123 5.60094C4.07327 5.4789 4.27113 5.4789 4.39317 5.60094L5.00553 6.21327L5.9367 5.28211L6.86791 4.35093C6.98995 4.22889 7.18778 4.22889 7.30983 4.35093Z" fill="#2563EB"/>
</svg>
